<svg xmlns="http://www.w3.org/2000/svg" width="22" height="19.61" viewBox="0 0 22 19.61">
  <g id="Group_90" data-name="Group 90" transform="translate(-64 -182)">
    <g id="icon-speech-bubble" transform="translate(319.536 409)">
      <g id="icon-speech-bubble-2" data-name="icon-speech-bubble" transform="translate(-255.536 -225)">
        <g id="Group_83" data-name="Group 83">
          <path id="Path_40" data-name="Path 40" d="M2.911,48.146H1.494l1-1a3.391,3.391,0,0,0,.968-2.005A7.637,7.637,0,0,1,.471,41.6a6.931,6.931,0,0,1-.2-4.441A8.694,8.694,0,0,1,3.6,32.508a10.885,10.885,0,0,1,6.431-1.972,10.781,10.781,0,0,1,7.433,2.534,7.606,7.606,0,0,1,1.9,8.713,7.823,7.823,0,0,1-1.9,2.646,10.756,10.756,0,0,1-7.429,2.544,13.517,13.517,0,0,1-3.362-.428,5.251,5.251,0,0,1-3.76,1.6ZM10.033,31.71C5.179,31.71,2.2,34.6,1.4,37.474a5.91,5.91,0,0,0,2.976,6.853l.293.177-.009.342a4.623,4.623,0,0,1-.467,1.916A4.158,4.158,0,0,0,6.033,45.5l.248-.293.368.11a12.142,12.142,0,0,0,3.384.479c6.041,0,8.793-3.658,8.793-7.057a6.456,6.456,0,0,0-2.151-4.805,9.638,9.638,0,0,0-6.641-2.226Z" transform="translate(0 -30.536)" fill="#8570de"/>
        </g>
      </g>
    </g>
    <circle id="Ellipse_16" data-name="Ellipse 16" cx="1" cy="1" r="1" transform="translate(77 189)" fill="#8570de"/>
    <circle id="Ellipse_17" data-name="Ellipse 17" cx="1.5" cy="1.5" r="1.5" transform="translate(79 185)" fill="#8570de"/>
    <circle id="Ellipse_18" data-name="Ellipse 18" cx="2" cy="2" r="2" transform="translate(82 182)" fill="#8570de"/>
  </g>
</svg>
