<svg id="icon-like-love" xmlns="http://www.w3.org/2000/svg" width="16" height="14.351" viewBox="0 0 16 14.351">
  <path id="Path_49" data-name="Path 49" d="M143.446,144.184a4.275,4.275,0,0,0-2.671.921,5.1,5.1,0,0,0-.626.575,5.072,5.072,0,0,0-.626-.575,4.276,4.276,0,0,0-2.671-.921,4.541,4.541,0,0,0-3.378,1.471,5.2,5.2,0,0,0-1.325,3.548c0,2.942,2.256,4.864,5.378,7.525.513.437,1.094.933,1.7,1.459a1.406,1.406,0,0,0,1.851,0c.607-.531,1.186-1.025,1.7-1.46,3.122-2.66,5.377-4.582,5.377-7.525a5.2,5.2,0,0,0-1.325-3.548A4.541,4.541,0,0,0,143.446,144.184Zm-1.177,11.305c-.417.356-1.632,1.293-2.121,1.716-.486-.422-1.659-1.359-2.078-1.716-2.93-2.5-4.6-4.236-4.6-6.286,0-1.789,1.772-3.828,3.378-3.828a3.646,3.646,0,0,1,2.091.845,4.418,4.418,0,0,1,.918,1.206c.194.325.014.338.393.338s.136-.012.33-.338c.095-.344-.03-.485.683-1.206a5.11,5.11,0,0,1,2.18-.845c1.605,0,3.377,2.039,3.377,3.828C146.823,151.254,145.2,152.992,142.269,155.489Zm-.312-.419" transform="translate(-132.149 -144.184)" fill="#8570de"/>
</svg>
