<svg xmlns="http://www.w3.org/2000/svg" xmlns:xlink="http://www.w3.org/1999/xlink" width="32" height="32" viewBox="0 0 32 32">
  <defs>
    <linearGradient id="linear-gradient" x1="0.146" y1="0.223" x2="0.81" y2="0.807" gradientUnits="objectBoundingBox">
      <stop offset="0" stop-color="#a44ff9"/>
      <stop offset="1" stop-color="#f374af"/>
    </linearGradient>
  </defs>
  <g id="Group_71" data-name="Group 71" transform="translate(-184 -588)">
    <g id="Group_48" data-name="Group 48" transform="translate(-1 -56)">
      <circle id="Ellipse_1" data-name="Ellipse 1" cx="16" cy="16" r="16" transform="translate(185 644)" fill="url(#linear-gradient)"/>
      <circle id="Ellipse_5" data-name="Ellipse 5" cx="15" cy="15" r="15" transform="translate(186 645)" fill="#fff"/>
      <circle id="Ellipse_6" data-name="Ellipse 6" cx="14" cy="14" r="14" transform="translate(187 646)" fill="url(#linear-gradient)"/>
    </g>
    <g id="icon-manage-account" transform="translate(202 606)">
      <g id="icon-manage-account-2" data-name="icon-manage-account" transform="translate(-12 -12)">
        <g id="Group_33" data-name="Group 33">
          <path id="Path_25" data-name="Path 25" d="M0,0H20V20H0Z" fill="none"/>
        </g>
        <g id="Group_35" data-name="Group 35" transform="translate(1.667 3.333)">
          <g id="Group_34" data-name="Group 34">
            <circle id="Ellipse_10" data-name="Ellipse 10" cx="3.333" cy="3.333" r="3.333" transform="translate(3.333)" fill="#fff"/>
            <path id="Path_26" data-name="Path 26" d="M9.225,13.017C9.042,13.008,8.858,13,8.667,13a10.73,10.73,0,0,0-5.508,1.517A2.435,2.435,0,0,0,2,16.625v2.208H9.717A5.8,5.8,0,0,1,8.667,15.5,5.893,5.893,0,0,1,9.225,13.017Z" transform="translate(-2 -5.5)" fill="#fff"/>
            <path id="Path_27" data-name="Path 27" d="M19.32,15.167a3.615,3.615,0,0,0-.05-.525l.95-.842-.833-1.442-1.208.408a3.039,3.039,0,0,0-.9-.525L17.028,11H15.362l-.25,1.242a3.039,3.039,0,0,0-.9.525L13,12.358,12.17,13.8l.95.842a3.615,3.615,0,0,0-.05.525,3.615,3.615,0,0,0,.05.525l-.95.842L13,17.975l1.208-.408a3.039,3.039,0,0,0,.9.525l.25,1.242h1.667l.25-1.242a3.039,3.039,0,0,0,.9-.525l1.208.408.833-1.442-.95-.842A3.615,3.615,0,0,0,19.32,15.167Zm-3.125,1.667a1.667,1.667,0,1,1,1.667-1.667A1.672,1.672,0,0,1,16.195,16.833Z" transform="translate(-3.695 -5.167)" fill="#fff"/>
          </g>
        </g>
      </g>
    </g>
  </g>
</svg>
