<svg xmlns="http://www.w3.org/2000/svg" xmlns:xlink="http://www.w3.org/1999/xlink" width="32" height="32" viewBox="0 0 32 32">
  <defs>
    <linearGradient id="linear-gradient" x1="0.146" y1="0.223" x2="0.81" y2="0.807" gradientUnits="objectBoundingBox">
      <stop offset="0" stop-color="#a44ff9"/>
      <stop offset="1" stop-color="#f374af"/>
    </linearGradient>
  </defs>
  <g id="Group_53" data-name="Group 53" transform="translate(-240 -612)">
    <g id="Group_50" data-name="Group 50" transform="translate(55 -32)">
      <circle id="Ellipse_1" data-name="Ellipse 1" cx="16" cy="16" r="16" transform="translate(185 644)" fill="url(#linear-gradient)"/>
      <circle id="Ellipse_5" data-name="Ellipse 5" cx="15" cy="15" r="15" transform="translate(186 645)" fill="#fff"/>
      <circle id="Ellipse_6" data-name="Ellipse 6" cx="14" cy="14" r="14" transform="translate(187 646)" fill="url(#linear-gradient)"/>
    </g>
    <g id="icon-search-people" transform="translate(258 630)">
      <g id="icon-search-people-2" data-name="icon-search-people" transform="translate(-12 -12)">
        <g id="Group_41" data-name="Group 41">
          <rect id="Rectangle_19" data-name="Rectangle 19" width="20" height="20" fill="none"/>
        </g>
        <g id="Group_43" data-name="Group 43" transform="translate(1.667 3.333)">
          <g id="Group_42" data-name="Group 42">
            <circle id="Ellipse_12" data-name="Ellipse 12" cx="3.333" cy="3.333" r="3.333" transform="translate(3.333)" fill="#fff"/>
            <path id="Path_35" data-name="Path 35" d="M8.958,14.009C6.683,13.926,2,15.059,2,17.334V19H9.95A4.958,4.958,0,0,1,8.958,14.009Z" transform="translate(-2 -5.667)" fill="#fff"/>
            <path id="Path_36" data-name="Path 36" d="M18.192,17.017a3.22,3.22,0,0,0,.475-1.683,3.333,3.333,0,1,0-3.333,3.333,3.3,3.3,0,0,0,1.683-.475l2.142,2.142,1.175-1.175ZM15.333,17A1.667,1.667,0,1,1,17,15.333,1.672,1.672,0,0,1,15.333,17Z" transform="translate(-3.667 -5.333)" fill="#fff"/>
          </g>
        </g>
      </g>
    </g>
  </g>
</svg>
